<svg width="20" height="20" viewBox="0 0 20 20" fill="none" xmlns="http://www.w3.org/2000/svg">
<circle cx="10" cy="10" r="10" fill="white" fill-opacity="0.4"/>
<path d="M6.51515 12.669C6.28985 12.8943 6.28985 13.2596 6.51515 13.4849C6.74045 13.7102 7.10574 13.7102 7.33104 13.4849L6.51515 12.669ZM14.0272 6.54978C14.0272 6.23115 13.7689 5.97286 13.4502 5.97286L8.25793 5.97286C7.9393 5.97286 7.681 6.23115 7.681 6.54978C7.681 6.86841 7.9393 7.1267 8.25793 7.1267H12.8733V11.7421C12.8733 12.0607 13.1316 12.319 13.4502 12.319C13.7689 12.319 14.0272 12.0607 14.0272 11.7421L14.0272 6.54978ZM7.33104 13.4849L13.8582 6.95773L13.0423 6.14183L6.51515 12.669L7.33104 13.4849Z" fill="#6A4BB4"/>
</svg>