<svg width="21" height="20" viewBox="0 0 21 20" fill="none" xmlns="http://www.w3.org/2000/svg">
<path d="M12.9989 11.6667H12.3406L12.1073 11.4417C12.9522 10.4617 13.4165 9.21058 13.4156 7.91667C13.4156 6.84535 13.0979 5.7981 12.5027 4.90733C11.9075 4.01656 11.0616 3.3223 10.0718 2.91232C9.08205 2.50235 7.99294 2.39508 6.9422 2.60408C5.89147 2.81309 4.92632 3.32897 4.16878 4.08651C3.41125 4.84404 2.89536 5.8092 2.68636 6.85993C2.47735 7.91066 2.58462 8.99977 2.9946 9.98954C3.40457 10.9793 4.09884 11.8253 4.98961 12.4205C5.88037 13.0157 6.92763 13.3333 7.99894 13.3333C9.34061 13.3333 10.5739 12.8417 11.5239 12.025L11.7489 12.2583V12.9167L15.9156 17.075L17.1573 15.8333L12.9989 11.6667ZM7.99894 11.6667C5.92394 11.6667 4.24894 9.99167 4.24894 7.91667C4.24894 5.84167 5.92394 4.16667 7.99894 4.16667C10.0739 4.16667 11.7489 5.84167 11.7489 7.91667C11.7489 9.99167 10.0739 11.6667 7.99894 11.6667Z" fill="#687685"/>
</svg>
